<svg width="300" height="118" viewBox="20 0 290 98" fill="none" xmlns="http://www.w3.org/2000/svg">
<path d="M359.744 118L359.744 0.324982C359.744 0.324982 309.92 8.67354 265.445 43.658C220.97 78.6425 182.362 84.94 116.077 70.1439C49.7916 55.3479 0 118 0 118L359.744 118Z" fill="url(#paint0_linear_2_3)" style="mix-blend-mode:darken"/>
<mask id="mask0_2_3" style="mask-type:alpha" maskUnits="userSpaceOnUse" x="0" y="0" width="360" height="118">
<path d="M359.744 118L359.744 0.324982C359.744 0.324982 309.92 8.67353 265.445 43.658C220.97 78.6425 182.362 84.94 116.077 70.1439C49.7916 55.3479 -3.05176e-05 118 -3.05176e-05 118L359.744 118Z" fill="url(#paint1_linear_2_3)"/>
</mask>
<g mask="url(#mask0_2_3)">
<g filter="url(#filter0_f_2_3)">
<path d="M267.676 42.4114C231.541 49.9126 188.866 65.0992 194.221 77.9611C199.575 90.8229 242.874 93.8314 284.778 88.8179C326.682 83.8043 351.976 53.4734 346.621 40.6116C341.267 27.7497 303.812 34.9102 267.676 42.4114Z" fill="url(#paint2_linear_2_3)"/>
</g>
</g>
<defs>
<filter id="filter0_f_2_3" x="143.763" y="-16.4716" width="253.569" height="157.586" filterUnits="userSpaceOnUse" color-interpolation-filters="sRGB">
<feFlood flood-opacity="0" result="BackgroundImageFix"/>
<feBlend mode="normal" in="SourceGraphic" in2="BackgroundImageFix" result="shape"/>
<feGaussianBlur stdDeviation="25" result="effect1_foregroundBlur_2_3"/>
</filter>
<linearGradient id="paint0_linear_2_3" x1="333.284" y1="103.688" x2="245.169" y2="12.2407" gradientUnits="userSpaceOnUse">
<stop stop-color="#db6ab5"/>
<stop offset="1" stop-color="#502B76"/>
</linearGradient>
<linearGradient id="paint1_linear_2_3" x1="333.284" y1="103.688" x2="245.169" y2="12.2407" gradientUnits="userSpaceOnUse">
<stop stop-color="#320421"/>
<stop offset="1" stop-color="#502B76"/>
</linearGradient>
<linearGradient id="paint2_linear_2_3" x1="290.375" y1="80.7585" x2="305.713" y2="107.893" gradientUnits="userSpaceOnUse">
<stop stop-color="#393868"/>
<stop offset="1" stop-color="#7FC7DC" stop-opacity="0.21"/>
</linearGradient>
</defs>
</svg>
