<svg width="78" height="28" viewBox="0 0 78 28" fill="none" xmlns="http://www.w3.org/2000/svg">
<path d="M2.772 0.907999V26H14.832V23.336H6.048V0.907999H2.772Z" fill="#FFFBFB"/>
<path d="M74.224 0.872V20.816L61.048 0.872H57.772V26H61.048V6.02L74.224 26H77.5V0.872H74.224Z" fill="#FFFBFB"/>
<path d="M22 4.08333L22 24.9167L24.25 27M22 4.08333L24.25 2L33.25 10.3333M22 4.08333L31 12.4167M24.25 27L24.25 10.3333L28.75 14.5L26.5 16.5833L35.5 8.25L44.5 16.5833L42.25 14.5L46.75 10.3333V27M24.25 27L35.5 16.5833L46.75 27M26.5 12.4167L26.5 20.75L35.5 12.4167L44.5 20.75V12.4167M49 4.08333L49 24.9167L46.75 27M49 4.08333L46.75 2L37.75 10.3333M49 4.08333L40 12.4167" stroke="#BA5E9B" stroke-linejoin="round"/>
</svg>
